<svg xmlns="http://www.w3.org/2000/svg" viewBox="0 0 246.9 74.88"><defs><style>.cls-1{fill:#ff6625;}.cls-2{fill:none;stroke:#fff;stroke-miterlimit:10;}.cls-3{font-size:32px;fill:#fff;font-family:FranklinGothic-Heavy, Franklin Gothic Heavy;font-weight:800;}</style></defs><g id="Ebene_1_Bild" data-name="Ebene 1 Bild"><rect class="cls-1" y="11.26" width="62.05" height="9.92" rx="3.39"/><path class="cls-1" d="M25.55,55.65c-.89,1.64-2.47,1.72-3.52.17L1.91,26c-1-1.55-.37-2.81,1.49-2.81H8.15a7,7,0,0,1,5.23,2.84L26.9,46.88a6.33,6.33,0,0,1,.24,5.83Z"/><path class="cls-1" d="M36.48,55.65c.89,1.64,2.47,1.72,3.51.17L60.12,26c1-1.55.37-2.81-1.49-2.81H53.88a7,7,0,0,0-5.24,2.84L35.13,46.88a6.33,6.33,0,0,0-.24,5.83Z"/><path class="cls-1" d="M29.08,53.67c.94-1.62,2.46-1.62,3.39,0l1.18,2c.93,1.61.17,2.94-1.7,2.94H29.6c-1.86,0-2.62-1.33-1.69-2.94Z"/><line class="cls-2" x1="35.77" y1="58.65" x2="35.94" y2="58.65"/></g><g id="vaporvee_s_Website" data-name="vaporvee‘s Website"><text class="cls-3" transform="translate(82.82 26.67)">vaporvee‘s<tspan x="0" y="38.4" xml:space="preserve"> Website</tspan></text></g></svg>